<svg width="16" height="16" viewBox="0 0 16 16" fill="none" xmlns="http://www.w3.org/2000/svg">
<path d="M0 8C0 3.58172 3.58172 0 8 0V0C12.4183 0 16 3.58172 16 8V8C16 12.4183 12.4183 16 8 16V16C3.58172 16 0 12.4183 0 8V8Z" fill="#60A612"/>
<path fill-rule="evenodd" clip-rule="evenodd" d="M10.7946 5.20535C10.9573 5.36807 10.9573 5.63189 10.7946 5.79461L6.21125 10.3779C6.04854 10.5407 5.78472 10.5407 5.622 10.3779L3.53866 8.29461C3.37595 8.13189 3.37595 7.86807 3.53866 7.70535C3.70138 7.54263 3.9652 7.54263 4.12792 7.70535L5.91663 9.49406L10.2053 5.20535C10.3681 5.04263 10.6319 5.04263 10.7946 5.20535ZM12.4613 6.87202C12.624 7.03474 12.624 7.29856 12.4613 7.46127L9.33625 10.5863C9.17354 10.749 8.90972 10.749 8.747 10.5863L8.122 9.96127C7.95928 9.79856 7.95928 9.53474 8.122 9.37202C8.28472 9.2093 8.54854 9.2093 8.71125 9.37202L9.04163 9.70239L11.872 6.87202C12.0347 6.7093 12.2985 6.7093 12.4613 6.87202Z" fill="white"/>
</svg>
